<?xml version="1.0" encoding="UTF-8"?>
<svg width="16px" height="16px" viewBox="0 0 16 16" version="1.1" xmlns="http://www.w3.org/2000/svg" xmlns:xlink="http://www.w3.org/1999/xlink">
    <g id="Page-1" stroke="none" stroke-width="1" fill="none" fill-rule="evenodd">
        <g id="logo" transform="translate(1.000000, 0.000000)" fill="#000000">
            <g>
                <path d="M10.5931034,1.72307692 C10.2206897,1.64102564 9.84827586,1.55897436 9.47586207,1.43589744 C9.31034483,1.39487179 9.10344828,1.31282051 8.93793103,1.23076923 C8.77241379,1.14871795 8.60689655,1.06666667 8.44137931,0.984615385 C8.27586207,0.902564103 8.11034483,0.820512821 7.94482759,0.738461538 C7.86206897,0.697435897 7.77931034,0.656410256 7.69655172,0.574358974 C7.6137931,0.533333333 7.53103448,0.451282051 7.44827586,0.41025641 L7.32413793,0.328205128 L7.2,0.41025641 C7.07586207,0.492307692 6.95172414,0.533333333 6.86896552,0.615384615 C6.74482759,0.697435897 6.62068966,0.738461538 6.49655172,0.820512821 C6.24827586,0.943589744 6,1.02564103 5.75172414,1.10769231 C5.50344828,1.18974359 5.25517241,1.27179487 4.96551724,1.31282051 C4.71724138,1.35384615 4.42758621,1.39487179 4.17931034,1.43589744 C3.93103448,1.47692308 3.64137931,1.47692308 3.39310345,1.47692308 C3.14482759,1.47692308 2.85517241,1.47692308 2.56551724,1.47692308 C2.27586207,1.47692308 2.02758621,1.43589744 1.73793103,1.43589744 C1.6137931,1.43589744 1.44827586,1.39487179 1.32413793,1.39487179 C1.2,1.39487179 1.07586207,1.35384615 0.910344828,1.35384615 L0.620689655,1.27179487 L0.579310345,1.64102564 L0.579310345,1.76410256 C0.579310345,1.84615385 0.537931034,1.92820513 0.537931034,1.96923077 L0.496551724,2.21538462 C0.413793103,2.37948718 0.413793103,2.54358974 0.372413793,2.70769231 C0.331034483,3.03589744 0.289655172,3.36410256 0.248275862,3.65128205 C0.206896552,4.30769231 0.165517241,4.92307692 0.206896552,5.57948718 C0.248275862,6.85128205 0.455172414,8.12307692 0.827586207,9.35384615 C1.2,10.5846154 1.73793103,11.7333333 2.4,12.8410256 C2.73103448,13.374359 3.10344828,13.9076923 3.51724138,14.4 C3.93103448,14.8923077 4.34482759,15.3435897 4.8,15.7948718 C4.3862069,15.3025641 4.0137931,14.8102564 3.64137931,14.2769231 C3.31034483,13.7435897 2.97931034,13.2102564 2.68965517,12.6769231 C2.11034483,11.5692308 1.65517241,10.4205128 1.32413793,9.23076923 C0.993103448,8.04102564 0.827586207,6.81025641 0.827586207,5.57948718 C0.827586207,4.96410256 0.827586207,4.34871795 0.910344828,3.73333333 C0.951724138,3.2 1.03448276,2.62564103 1.15862069,2.09230769 C1.2,2.09230769 1.2,2.09230769 1.24137931,2.09230769 C1.36551724,2.13333333 1.53103448,2.13333333 1.65517241,2.13333333 C1.94482759,2.17435897 2.23448276,2.17435897 2.52413793,2.17435897 C3.10344828,2.17435897 3.68275862,2.17435897 4.26206897,2.09230769 C4.84137931,2.01025641 5.42068966,1.88717949 5.95862069,1.64102564 C6.24827586,1.51794872 6.49655172,1.43589744 6.74482759,1.27179487 C6.86896552,1.18974359 6.99310345,1.14871795 7.11724138,1.06666667 C7.2,1.02564103 7.28275862,0.984615385 7.32413793,0.902564103 C7.36551724,0.902564103 7.40689655,0.943589744 7.40689655,0.943589744 C7.48965517,0.984615385 7.57241379,1.02564103 7.65517241,1.06666667 C7.90344828,1.23076923 8.06896552,1.31282051 8.27586207,1.39487179 C8.44137931,1.47692308 8.64827586,1.51794872 8.85517241,1.6 C9.06206897,1.64102564 9.22758621,1.72307692 9.43448276,1.72307692 C9.80689655,1.80512821 10.2206897,1.84615385 10.5931034,1.88717949 C10.9655172,1.92820513 11.3793103,1.88717949 11.7517241,1.84615385 C11.337931,1.80512821 10.9655172,1.76410256 10.5931034,1.72307692 Z" id="Shape" fill-rule="nonzero"></path>
                <g id="Group" transform="translate(4.551724, 4.512821)" fill-rule="nonzero">
                    <path d="M4.71724138,0.615384615 C5.2137931,1.02564103 5.46206897,1.64102564 5.46206897,2.5025641 C5.46206897,3.36410256 5.2137931,3.97948718 4.71724138,4.34871795 C4.22068966,4.75897436 3.43448276,4.92307692 2.44137931,4.92307692 L1.53103448,4.92307692 L1.53103448,6.89230769 L0,6.89230769 L0,0 L2.44137931,0 C3.47586207,0 4.22068966,0.205128205 4.71724138,0.615384615 Z M3.6,3.32307692 C3.76551724,3.11794872 3.88965517,2.83076923 3.88965517,2.42051282 C3.88965517,2.01025641 3.76551724,1.72307692 3.51724138,1.55897436 C3.26896552,1.39487179 2.89655172,1.31282051 2.4,1.31282051 L1.53103448,1.31282051 L1.53103448,3.61025641 L2.56551724,3.61025641 C3.06206897,3.65128205 3.39310345,3.52820513 3.6,3.32307692 Z" id="Shape"></path>
                </g>
            </g>
        </g>
    </g>
</svg>